<?xml version="1.0" encoding="utf-8"?>
<!-- Generator: Adobe Illustrator 23.0.5, SVG Export Plug-In . SVG Version: 6.00 Build 0)  -->
<svg version="1.1" id="Capa_1" xmlns="http://www.w3.org/2000/svg" xmlns:xlink="http://www.w3.org/1999/xlink" x="0px" y="0px"
	 viewBox="0 0 930 612" style="enable-background:new 0 0 930 612;" xml:space="preserve">
<style type="text/css">
	.st0{fill:#F5F5F5;}
	.st1{fill:#FF5C97;}
	.st2{fill:none;stroke:#FFFFFF;stroke-width:2;stroke-miterlimit:10;}
	.st3{fill:#6C63FF;}
	.st4{fill:#3F3D56;}
	.st5{fill:url(#SVGID_1_);}
	.st6{fill:#1E3659;}
	.st7{fill:#FFFFFF;}
	.st8{fill:url(#SVGID_2_);}
	.st9{opacity:0.1;enable-background:new    ;}
	.st10{fill:url(#SVGID_3_);}
	.st11{fill:none;stroke:#535461;stroke-width:2;stroke-miterlimit:10;}
	.st12{fill:url(#SVGID_4_);}
	.st13{fill:#F7C4A7;}
	.st14{opacity:5.000000e-02;enable-background:new    ;}
	.st15{fill:#D0CDE1;}
	.st16{opacity:0.1;fill:#D0CDE1;enable-background:new    ;}
	.st17{fill:#2F2E41;}
	.st18{fill:#575988;}
	.st19{fill:#DDDBE2;}
</style>
<title>web_devices</title>
<ellipse class="st0" cx="465" cy="487.5" rx="465" ry="124.5"/>
<path class="st1" d="M851.2,186.9c0,0-35.8,35.8-15.6,89c20.2,53.2-34.7,141.6-34.7,141.6s0.6-0.1,1.7-0.3
	c73.6-13,110.2-97.2,69.2-159.7C856.6,234.2,844.1,207,851.2,186.9z"/>
<path class="st2" d="M851.2,186.9c0,0-20.2,43.9,0,79.8s3.5,136.4-50.3,150.8"/>
<path class="st3" d="M915,331.8c0,0-40.9-6.5-44.6,30.1s-78.6,41.7-78.6,41.7l1.4,0.9c61.8,40.6,121,25.9,112-28
	C901.9,356.5,902.2,336.4,915,331.8z"/>
<path class="st4" d="M915,331.8c0,0-40.9-6.5-44.6,30.1s-78.6,41.7-78.6,41.7l1.4,0.9c61.8,40.6,121,25.9,112-28
	C901.9,356.5,902.2,336.4,915,331.8z"/>
<path class="st2" d="M915,331.8c0,0-31.7,7-29.1,35.8c2.6,28.8-47.1,63.4-94.1,36"/>
<linearGradient id="SVGID_1_" gradientUnits="userSpaceOnUse" x1="569.05" y1="8" x2="569.05" y2="373.72" gradientTransform="matrix(1 0 0 -1 -82 470)">
	<stop  offset="0" style="stop-color:#808080;stop-opacity:0.25"/>
	<stop  offset="0.54" style="stop-color:#808080;stop-opacity:0.12"/>
	<stop  offset="1" style="stop-color:#808080;stop-opacity:0.1"/>
</linearGradient>
<path class="st5" d="M820.4,419.9h-64.2c1.5-3,2.2-6.2,2.2-9.6V117.8c0-11.9-9.6-21.5-21.5-21.5l0,0H239.5
	c-11.9,0-21.5,9.6-21.5,21.5c0,0,0,0,0,0v292.6c0,3.3,0.8,6.6,2.2,9.6h-66.5c-3.1,0-5.7,2.5-5.7,5.7l0,0v4.6
	c0,17.6,14.3,31.8,31.8,31.8h614.4c17.6,0,31.8-14.2,31.8-31.8l0,0v-4.6C826,422.5,823.5,419.9,820.4,419.9z M424.5,438.1l-5.5-6.3
	h136.7l-6.1,6.3L424.5,438.1z"/>
<path class="st6" d="M247.4,100.4H729c12.8,0,23.3,10.4,23.3,23.3v281.5c0,12.8-10.4,23.3-23.3,23.3H247.4
	c-12.8,0-23.3-10.4-23.3-23.3V123.7C224.1,110.8,234.5,100.4,247.4,100.4z"/>
<rect x="235.2" y="148.2" class="st7" width="504.8" height="268"/>
<circle class="st7" cx="487.6" cy="124.9" r="4.5"/>
<path class="st6" d="M565.5,416.7l-17.3,17.8H425.9l-15.7-17.8H161.3c-3.1,0-5.6,2.5-5.6,5.6v4.5c0,17.2,13.9,31.1,31.1,31.1h600.5
	c17.2,0,31.1-13.9,31.1-31.1v-4.5c0-3.1-2.5-5.6-5.6-5.6L565.5,416.7z"/>
<linearGradient id="SVGID_2_" gradientUnits="userSpaceOnUse" x1="367.945" y1="-21.61" x2="367.945" y2="312.35" gradientTransform="matrix(1 0 0 -1 -82 470)">
	<stop  offset="0" style="stop-color:#808080;stop-opacity:0.25"/>
	<stop  offset="0.54" style="stop-color:#808080;stop-opacity:0.12"/>
	<stop  offset="1" style="stop-color:#808080;stop-opacity:0.1"/>
</linearGradient>
<path class="st8" d="M392.4,157.6H179.5c-10.8,0-19.5,8.7-19.5,19.5v295c0,10.8,8.8,19.5,19.5,19.5h212.9c10.8,0,19.5-8.7,19.5-19.5
	v-295C411.9,166.4,403.2,157.6,392.4,157.6z"/>
<g>
	<g class="st9">
		<g>
			<path d="M586.8,240.4c-5.4-7.7-14.2-12.2-23.5-12.2c-15.8,0-28.7,12.9-28.7,28.7c0,0.3,0,0.6,0,0.9l-16.9,5.6
				c-8.3-9.5-21.9-12.4-33.4-7l-29-29c6.6-14.4,0.3-31.5-14.1-38.1c-14.4-6.6-31.5-0.3-38.1,14.1c-6.6,14.4-0.3,31.5,14.1,38.1
				c8.4,3.9,18.1,3.5,26.2-1.1l27.9,27.9c-3.7,6.5-4.7,14.1-2.8,21.3l-18,12c-12.4-10.1-30.6-8.3-40.8,4.1
				c-10.1,12.4-8.3,30.6,4.1,40.8c12.4,10.1,30.6,8.3,40.8-4.1c5.9-7.2,8-16.8,5.6-25.7l18-12c7.5,6.2,17.7,8.1,27,5l8.9,13.2
				c-11.4,11.4-11.4,30,0.1,41.4s30,11.4,41.4-0.1s11.4-30-0.1-41.4c-6.6-6.6-16.1-9.7-25.3-8.2L519.8,299c4.3-5.9,6.1-13.3,5-20.6
				l15.1-5c9.1,13,27,16.1,40,7C592.8,271.3,595.9,253.4,586.8,240.4z M429.4,237.8c-12.3,0-22.3-10-22.3-22.3
				c0-12.3,10-22.3,22.3-22.3s22.3,10,22.3,22.3C451.7,227.8,441.7,237.8,429.4,237.8z M448.7,236.6c1.2-1.1,2.3-2.3,3.3-3.6l34,34
				c1,1,1,2.5,0,3.5c-0.1,0.1-0.2,0.2-0.4,0.3c-1,0.6-2.3,0.5-3.1-0.3L448.7,236.6z M432.6,346.2c-12.3,0-22.3-10-22.3-22.3
				s10-22.3,22.3-22.3s22.3,10,22.3,22.3C454.9,336.2,444.9,346.2,432.6,346.2z M458,310.5c-0.8-1.5-1.7-2.9-2.8-4.3l15.8-10.5
				c0.8,1.5,1.7,2.9,2.8,4.3L458,310.5z M499.9,301.7l1.6,2.4c-11.9,2.9-24-4.5-26.8-16.4c-1.2-4.9-0.7-10.1,1.5-14.6l2,2
				c3.5,3.4,9.1,3.3,12.5-0.2c3.3-3.4,3.3-8.8,0-12.3l-1.3-1.3c11.6-4,24.2,2.2,28.2,13.9c0.8,2.3,1.2,4.8,1.2,7.3
				c0,3.8-0.9,7.5-2.8,10.8l-0.9-1.3c-2.8-4.1-8.4-5.2-12.5-2.4C498.4,292.2,497.3,297.6,499.9,301.7z M534.6,320.7
				c12.3,0,22.3,10,22.3,22.3c0,12.3-10,22.3-22.3,22.3s-22.3-10-22.3-22.3C512.3,330.7,522.3,320.7,534.6,320.7z M523.7,316.4
				c-1.6,0.7-3.1,1.5-4.6,2.4l-13.9-20.6c-0.8-1.2-0.4-2.9,0.8-3.7s2.9-0.4,3.7,0.8L523.7,316.4z M523.2,272.2
				c-0.4-1.2-0.9-2.3-1.5-3.4l14-4.7c0.3,1.2,0.7,2.4,1.2,3.5L523.2,272.2z M563.3,279.2c-12.3,0-22.3-10-22.3-22.3
				s10-22.3,22.3-22.3c12.3,0,22.3,10,22.3,22.3C585.6,269.2,575.6,279.2,563.3,279.2z"/>
		</g>
	</g>
	<g>
		<g>
			<path class="st1" d="M586.4,235.8c-5.4-7.7-14.2-12.2-23.5-12.2c-15.8,0-28.7,12.9-28.7,28.7c0,0.3,0,0.6,0,0.9l-16.9,5.6
				c-8.3-9.5-21.9-12.4-33.4-7l-29-29c6.6-14.4,0.3-31.5-14.1-38.1c-14.4-6.6-31.5-0.3-38.1,14.1c-6.6,14.4-0.3,31.5,14.1,38.1
				c8.4,3.9,18.1,3.5,26.2-1.1l27.9,27.9c-3.7,6.5-4.7,14.1-2.8,21.3l-18,12c-12.4-10.1-30.6-8.3-40.8,4.1
				c-10.1,12.4-8.3,30.6,4.1,40.8c12.4,10.1,30.6,8.3,40.8-4.1c5.9-7.2,8-16.8,5.6-25.7l18-12c7.5,6.2,17.7,8.1,27,5l8.9,13.2
				c-11.4,11.4-11.4,30,0.1,41.4s30,11.4,41.4-0.1s11.4-30-0.1-41.4c-6.6-6.6-16.1-9.7-25.3-8.2l-10.5-15.7c4.3-5.9,6.1-13.3,5-20.6
				l15.1-5c9.1,13,27,16.1,40,7C592.3,266.7,595.5,248.8,586.4,235.8z M428.9,233.2c-12.3,0-22.3-10-22.3-22.3
				c0-12.3,10-22.3,22.3-22.3s22.3,10,22.3,22.3S441.3,233.2,428.9,233.2z M448.2,232c1.2-1.1,2.3-2.3,3.3-3.6l34,34
				c1,1,1,2.5,0,3.5c-0.1,0.1-0.2,0.2-0.4,0.3c-1,0.6-2.3,0.5-3.1-0.3L448.2,232z M432.1,341.6c-12.3,0-22.3-10-22.3-22.3
				s10-22.3,22.3-22.3s22.3,10,22.3,22.3C454.4,331.6,444.4,341.5,432.1,341.6z M457.5,305.9c-0.8-1.5-1.7-2.9-2.8-4.3l15.8-10.5
				c0.8,1.5,1.7,2.9,2.8,4.3L457.5,305.9z M499.4,297.1l1.6,2.4c-11.9,2.9-24-4.5-26.8-16.4c-1.2-4.9-0.7-10.1,1.5-14.6l2,2
				c3.5,3.4,9.1,3.3,12.5-0.2c3.3-3.4,3.3-8.8,0-12.3l-1.3-1.3c11.6-4,24.2,2.2,28.2,13.9c0.8,2.3,1.2,4.8,1.2,7.3
				c0,3.8-0.9,7.5-2.8,10.8l-0.9-1.3c-2.8-4.1-8.4-5.2-12.5-2.4C498,287.5,496.8,293,499.4,297.1z M534.2,316
				c12.3,0,22.3,10,22.3,22.3c0,12.3-10,22.3-22.3,22.3c-12.3,0-22.3-10-22.3-22.3S521.8,316,534.2,316z M523.3,311.8
				c-1.6,0.7-3.1,1.5-4.6,2.4l-13.9-20.6c-0.8-1.2-0.4-2.9,0.8-3.7c1.2-0.8,2.9-0.4,3.7,0.8L523.3,311.8z M522.7,267.6
				c-0.4-1.2-0.9-2.3-1.5-3.4l14-4.7c0.3,1.2,0.7,2.4,1.2,3.5L522.7,267.6z M562.8,274.6c-12.3,0-22.3-10-22.3-22.3
				s10-22.3,22.3-22.3c12.3,0,22.3,10,22.3,22.3C585.2,264.6,575.2,274.6,562.8,274.6z"/>
		</g>
	</g>
</g>
<path class="st6" d="M182.9,161.6h206c11,0,20,9,20,20v287c0,11-9,20-20,20h-206c-11,0-20-9-20-20v-287
	C162.9,170.6,171.9,161.6,182.9,161.6z"/>
<rect x="175.4" y="192.6" class="st7" width="221" height="265.1"/>
<circle class="st7" cx="284.9" cy="176.6" r="3"/>
<circle class="st7" cx="284.9" cy="472.6" r="9"/>
<linearGradient id="SVGID_3_" gradientUnits="userSpaceOnUse" x1="257.445" y1="-48.65" x2="257.445" y2="212.35" gradientTransform="matrix(1 0 0 -1 -82 470)">
	<stop  offset="0" style="stop-color:#808080;stop-opacity:0.25"/>
	<stop  offset="0.54" style="stop-color:#808080;stop-opacity:0.12"/>
	<stop  offset="1" style="stop-color:#808080;stop-opacity:0.1"/>
</linearGradient>
<path class="st10" d="M230.1,257.6H120.8c-6,0-10.8,4.8-10.8,10.8v0v239.4c0,6,4.9,10.8,10.8,10.8l0,0h109.3c6,0,10.8-4.8,10.8-10.8
	l0,0V268.4C240.9,262.5,236.1,257.6,230.1,257.6L230.1,257.6z"/>
<g>
	<g class="st9">
		<g>
			<path d="M342.1,304.1c-3.3-4.7-8.7-7.5-14.4-7.5c-9.7,0-17.5,7.9-17.6,17.6c0,0.2,0,0.4,0,0.5l-10.3,3.4
				c-5.1-5.8-13.4-7.6-20.4-4.3l-17.7-17.7c4.1-8.8,0.2-19.3-8.6-23.3c-8.8-4.1-19.3-0.2-23.3,8.6c-4.1,8.8-0.2,19.3,8.6,23.3
				c5.1,2.4,11.1,2.1,16-0.7l17.1,17.1c-2.3,4-2.9,8.6-1.7,13l-11,7.3c-7.6-6.2-18.7-5.1-24.9,2.5c-6.2,7.6-5.1,18.7,2.5,24.9
				c7.6,6.2,18.7,5.1,24.9-2.5c3.6-4.4,4.9-10.3,3.4-15.7l11-7.3c4.6,3.8,10.8,4.9,16.5,3.1l5.5,8.1c-7,7-7,18.3,0,25.3
				s18.3,7,25.3,0c7-7,7-18.3,0-25.3c-4.1-4.1-9.8-5.9-15.5-5l-6.4-9.6c2.6-3.6,3.7-8.1,3-12.6l9.3-3.1c5.6,7.9,16.5,9.8,24.4,4.3
				C345.8,323,347.7,312,342.1,304.1z M245.8,302.5c-7.5,0-13.6-6.1-13.7-13.7c0-7.5,6.1-13.7,13.7-13.7c7.5,0,13.7,6.1,13.7,13.7
				S253.4,302.5,245.8,302.5z M257.6,301.8c0.7-0.7,1.4-1.4,2-2.2l20.8,20.8c0.6,0.6,0.6,1.5,0,2.1c-0.1,0.1-0.1,0.1-0.2,0.2
				c-0.6,0.4-1.4,0.3-1.9-0.2L257.6,301.8z M247.8,368.8c-7.5,0-13.7-6.1-13.7-13.7s6.1-13.7,13.7-13.7s13.7,6.1,13.7,13.7
				C261.4,362.7,255.3,368.8,247.8,368.8z M263.3,347c-0.5-0.9-1.1-1.8-1.7-2.6l9.6-6.4c0.5,0.9,1.1,1.8,1.7,2.6L263.3,347z
				 M288.9,341.6l1,1.4c-7.3,1.8-14.7-2.7-16.4-10c-0.7-3-0.4-6.1,0.9-8.9l1.2,1.2c2.1,2.1,5.6,2,7.6-0.1c2-2.1,2-5.4,0-7.5
				l-0.8-0.8c7.1-2.4,14.8,1.4,17.2,8.5c0.5,1.4,0.7,2.9,0.7,4.5c0,2.3-0.6,4.6-1.7,6.6l-0.5-0.8c-1.7-2.5-5.1-3.2-7.7-1.5
				C288,335.7,287.3,339.1,288.9,341.6z M310.2,353.2c7.5,0,13.6,6.1,13.7,13.7c0,7.5-6.1,13.7-13.7,13.7s-13.7-6.1-13.7-13.7
				C296.5,359.3,302.6,353.2,310.2,353.2z M303.5,350.6c-1,0.4-1.9,0.9-2.8,1.5l-8.5-12.6c-0.5-0.8-0.3-1.8,0.5-2.2
				c0.8-0.5,1.8-0.3,2.2,0.5L303.5,350.6z M303.2,323.6c-0.3-0.7-0.6-1.4-0.9-2.1l8.5-2.8c0.2,0.7,0.4,1.4,0.7,2.1L303.2,323.6z
				 M327.7,327.8c-7.5,0-13.7-6.1-13.7-13.7s6.1-13.7,13.7-13.7s13.7,6.1,13.7,13.7C341.4,321.7,335.3,327.8,327.7,327.8z"/>
		</g>
	</g>
	<g>
		<g>
			<path class="st1" d="M341.8,301.3c-3.3-4.7-8.7-7.5-14.4-7.5c-9.7,0-17.5,7.9-17.6,17.6c0,0.2,0,0.4,0,0.5l-10.3,3.4
				c-5.1-5.8-13.4-7.6-20.4-4.3l-17.7-17.7c4.1-8.8,0.2-19.3-8.6-23.3c-8.8-4.1-19.3-0.2-23.3,8.6c-4.1,8.8-0.2,19.3,8.6,23.3
				c5.1,2.4,11.1,2.1,16-0.7l17.1,17.1c-2.3,4-2.9,8.6-1.7,13l-11,7.3c-7.6-6.2-18.7-5.1-24.9,2.5c-6.2,7.6-5.1,18.7,2.5,24.9
				c7.6,6.2,18.7,5.1,24.9-2.5c3.6-4.4,4.9-10.3,3.4-15.7l11-7.3c4.6,3.8,10.8,4.9,16.5,3.1l5.5,8.1c-7,7-7,18.3,0,25.3
				s18.3,7,25.3,0s7-18.3,0-25.3c-4.1-4.1-9.8-5.9-15.5-5l-6.4-9.6c2.6-3.6,3.7-8.1,3-12.6l9.3-3.1c5.6,7.9,16.5,9.8,24.4,4.3
				C345.5,320.2,347.4,309.2,341.8,301.3z M245.5,299.7c-7.5,0-13.6-6.1-13.7-13.7c0-7.5,6.1-13.7,13.7-13.7
				c7.5,0,13.7,6.1,13.7,13.7S253.1,299.7,245.5,299.7z M257.3,299c0.7-0.7,1.4-1.4,2-2.2l20.8,20.8c0.6,0.6,0.6,1.5,0,2.1
				c-0.1,0.1-0.1,0.1-0.2,0.2c-0.6,0.4-1.4,0.3-1.9-0.2L257.3,299z M247.5,366c-7.5,0-13.7-6.1-13.7-13.7c0-7.5,6.1-13.7,13.7-13.7
				s13.7,6.1,13.7,13.7C261.1,359.8,255,366,247.5,366z M263,344.2c-0.5-0.9-1.1-1.8-1.7-2.6l9.6-6.4c0.5,0.9,1.1,1.8,1.7,2.6
				L263,344.2z M288.7,338.8l1,1.4c-7.3,1.8-14.7-2.7-16.4-10c-0.7-3-0.4-6.1,0.9-8.9l1.2,1.2c2.1,2.1,5.6,2,7.6-0.1
				c2-2.1,2-5.4,0-7.5l-0.8-0.8c7.1-2.4,14.8,1.4,17.2,8.5c0.5,1.4,0.7,2.9,0.7,4.5c0,2.3-0.6,4.6-1.7,6.6l-0.5-0.8
				c-1.7-2.5-5.1-3.2-7.7-1.5C287.7,332.9,287,336.3,288.7,338.8z M309.9,350.4c7.5,0,13.6,6.1,13.7,13.7c0,7.5-6.1,13.7-13.7,13.7
				c-7.5,0-13.7-6.1-13.7-13.7C296.2,356.5,302.3,350.4,309.9,350.4z M303.2,347.8c-1,0.4-1.9,0.9-2.8,1.5l-8.5-12.6
				c-0.5-0.8-0.3-1.8,0.5-2.2c0.8-0.5,1.8-0.3,2.2,0.5L303.2,347.8z M302.9,320.7c-0.3-0.7-0.6-1.4-0.9-2.1l8.5-2.8
				c0.2,0.7,0.4,1.4,0.7,2.1L302.9,320.7z M327.4,325c-7.5,0-13.7-6.1-13.7-13.7c0-7.5,6.1-13.7,13.7-13.7s13.7,6.1,13.7,13.7
				C341.1,318.9,335,325,327.4,325z"/>
		</g>
	</g>
</g>
<path class="st6" d="M121.9,259.6h107c6.1,0,11,4.9,11,11v236c0,6.1-4.9,11-11,11h-107c-6.1,0-11-4.9-11-11v-236
	C110.9,264.6,115.9,259.6,121.9,259.6z"/>
<rect x="120.4" y="283.6" class="st7" width="110" height="210"/>
<circle class="st7" cx="162.4" cy="271.6" r="1"/>
<path class="st7" d="M168.4,270.6h20c0.6,0,1,0.4,1,1l0,0c0,0.6-0.4,1-1,1h-20c-0.6,0-1-0.4-1-1l0,0
	C167.4,271.1,167.9,270.6,168.4,270.6z"/>
<circle class="st7" cx="174.9" cy="503.6" r="7"/>
<path class="st11" d="M97.7,536.3c0,0-13.3-45,2.5-78.1c6.7-13.9,8.7-29.5,5.8-44.6c-1.5-7.2-3.6-14.2-6.3-20.9"/>
<path class="st1" d="M109.5,371.6c0,5.5-10,21.5-10,21.5s-10-16-10-21.5c0-5.5,4.5-10,10-10S109.5,366.1,109.5,371.6z"/>
<path class="st1" d="M126,402.2c-3,4.6-20.1,12.6-20.1,12.6s0.3-18.9,3.3-23.5c2.8-4.8,8.9-6.4,13.7-3.6s6.4,8.9,3.6,13.7
	C126.3,401.7,126.2,401.9,126,402.2z"/>
<path class="st1" d="M125.2,454.4c-4.9,2.5-23.7,0.8-23.7,0.8s9.8-16.1,14.7-18.6c5-2.3,11,0,13.2,5
	C131.6,446.3,129.8,451.9,125.2,454.4L125.2,454.4z"/>
<path class="st1" d="M115.8,493.8c-4.4,3.3-23.2,4.8-23.2,4.8s6.9-17.5,11.4-20.8c4.6-3.1,10.8-1.8,13.9,2.8
	C120.6,484.8,119.8,490.5,115.8,493.8z"/>
<path class="st1" d="M84.9,415.9c4,3.8,22.4,7.8,22.4,7.8s-4.5-18.3-8.5-22.2c-3.8-4-10.1-4.2-14.1-0.5s-4.2,10.1-0.5,14.1
	C84.5,415.5,84.7,415.7,84.9,415.9L84.9,415.9z"/>
<path class="st1" d="M74.5,462.1c4.9,2.5,23.7,0.8,23.7,0.8s-9.8-16.1-14.7-18.6c-4.8-2.7-10.9-1-13.6,3.8c-2.7,4.8-1,10.9,3.8,13.6
	C73.9,461.9,74.2,462,74.5,462.1L74.5,462.1z"/>
<path class="st1" d="M70.5,508.4c4.4,3.3,23.2,4.8,23.2,4.8s-6.9-17.5-11.4-20.8c-4.6-3.1-10.8-1.8-13.9,2.8
	C65.6,499.4,66.5,505.1,70.5,508.4z"/>
<linearGradient id="SVGID_4_" gradientUnits="userSpaceOnUse" x1="743.6692" y1="-89.5755" x2="743.6692" y2="228.4932" gradientTransform="matrix(1 0 0 -1 -82 470)">
	<stop  offset="0" style="stop-color:#808080;stop-opacity:0.25"/>
	<stop  offset="0.54" style="stop-color:#808080;stop-opacity:0.12"/>
	<stop  offset="1" style="stop-color:#808080;stop-opacity:0.1"/>
</linearGradient>
<path class="st12" d="M889,393.1c-11.1-13.4-24.5-28.9-22.6-46.7c1.5-14.5-2.1-27.9-1.4-42.4c1-20.6-3.1-36.8-18-50
	c-8.7-7.7-23.2-13.8-27.5-12.3c-8.6,3.1-17.9,1.9-26.7,4c-6.7,1.6-11.1,4-13.9,7c-5.5,5-5.6,12-3.1,19.5
	c-8.7,15.9-2.8,35.9,13.1,44.6c1,0.6,2.1,1.1,3.1,1.5c-6.2,2.6-11.5,8.5-13.6,20.6c-1.4,8.3-3.6,16.4-6.5,24.3
	c-1.3,0.6-2.6,1.1-4,1.6c0.3,0.1,0.6,0.2,0.9,0.3c-0.7,0.3-1.3,0.5-2,0.7c1.2,0.5,2.4,0.8,3.7,1.1c-8,20.2-18,32.7-18,32.7
	s-18.7,4.1-25.9-3.1c0,0,1.2,1.4,2.8,3.5c-7.1-2.9-18.7-7.7-28.7-11.7c-7.2-2.9-9.1,0-9,4c-1.8,0.2-3.5,0.8-5,1.7
	c-2.1-1.4-4.4-2.6-6.7-3.6c-4.1-1-17.6-8.2-31.1,16.5c-7.8,14.4-27.9,40.6-43.4,60c-30,13.8-69.2,31.3-83.7,35.7h-9.3
	c-1.2-2-2.1-3.3-2.1-3.3l-0.7,0.5l-0.3-0.5c0,0-18.3,12.7-36.9,12.8c-2.6,0-5.3-0.4-7.8-1c-8.5-2.2-14.6-3.1-18.9-3
	c-5.1-0.1-8,1.1-9.8,3.4l0,0c-0.2,0.3-0.5,0.6-0.7,0.9l0,0c-0.2,0.3-0.4,0.7-0.5,1l0,0c-0.2,0.4-0.3,0.7-0.5,1.1
	c-0.1,0.7,0.1,1.4,0.6,2c0.2,0.3,0.5,0.7,0.8,1l0.5,0.6c2.3,2.4,6.6,5.6,11.9,9.2c1.5,1,3.2,2.1,4.8,3.2l3.2,2l2.9,1.8l1.2,0.7
	l1.3,0.8l2.3,1.4l1.4,0.8l2.6,1.5l2.1,1.2c5.4,3.2,10.9,6.3,15.8,9.1l3.4,2l0.3,0.2l2.2,1.2l3.8,2.1l2.6,1.4l1.2,0.7l1.3,0.7
	l0.3,0.1l2.3,1.2c0.9,0.2,1.9-0.1,2.7-0.7c0.7-2.8,2.3-8.8,4-9.3s9.2-13.5,11.3-22.3h20.2c4-0.3,7.9-0.9,11.8-1.8
	c-5.2,3.7-10.4,6.1-14.4,5.1c-8.5-2.1-16.5,3.1-17.4,8.2c0,0.1-0.1,0.2-0.1,0.3s0,0.2-0.1,0.3s-0.1,0.3-0.1,0.4s0,0.2,0,0.3
	s0,0.3,0,0.4s0,0.2,0,0.3s0,0.3,0,0.4s0,0.2,0,0.3s0.1,0.3,0.1,0.4s0,0.2,0.1,0.3c0.1,0.2,0.1,0.4,0.2,0.5l0,0.1
	c0.1,0.2,0.2,0.4,0.4,0.6l0.2,0.2c0.1,0.1,0.2,0.3,0.3,0.4l0.2,0.2c0.1,0.1,0.3,0.2,0.4,0.4l0.3,0.2l0.5,0.3l0.3,0.2l0.5,0.3
	l0.4,0.2l0.7,0.3l0.3,0.2c0.4,0.2,0.7,0.3,1.2,0.4c0.7,0.2,1.4,0.4,2.3,0.7l0.9,0.2l1.3,0.3l0.7,0.2c0.9,0.2,1.8,0.4,2.8,0.6
	l1.3,0.3l1.1,0.2l2.5,0.4c1.6,0.3,3.2,0.5,5,0.8l4.4,0.7l5.7,0.8l1.3,0.2l2,0.3l2.9,0.4l2,0.3l0,0l5.2,0.7l1.6,0.2l3.3,0.4
	c4.3,0.5,8.5,1,12.3,1.4l4.4,0.5l2.2,0.3l1,0.1l2.7,0.3l1.5,0.2l1.8,0.2l2.6,0.3h0.3l1.7,0.2l0,0c0.8,0.1,1.6-0.5,1.7-1.3
	c0,0,0-0.1,0-0.1l0,0l0,0c0,0,0-0.1,0-0.2c0.2-0.2,0.2-0.5,0.2-0.8c0-2.5,0.4-4.9,0.9-7.3c0.1-0.4,0.2-0.8,0.4-1.3l0.2-0.5
	c0.2-0.5,0.4-1,0.6-1.5c0.2-0.4,0.3-0.8,0.4-1.1c0-0.1,0.1-0.2,0.1-0.4s0.1-0.4,0.1-0.6c2.1-7.1-0.4-20.4-1.2-25.6
	c-0.2-1.7-0.6-3.3-1.1-4.9c0.1,0,0.3,0,0.4,0c1.1-0.4,2.1-0.9,3-1.6c15.3-5.5,28.2-11.7,32.2-17.9c6.6-1.7,13.6-1,19.7,2.1
	c7.9,3.9,67.8,23.5,95.6,32.5c5,4.3,8.9,6.8,11.1,6.6c0,0,35.5,5.7,49.7-5.5c1.3,0.9,2.1,1.3,2.1,1.3s20.7-10.3,23.8-23.7
	c1-4.3,1.9-10.7,2.8-17.8c4.8-4.8,7.5-11.4,7.5-18.2c0.7-22.5,9.4-48.2,15.8-71c7.8,0.6,10.9-0.9,18.1-4.4l-0.3-0.4
	C888.1,393.5,888.6,393.3,889,393.1z M770.2,426.8l-4-1.3c1.3-1.8,2.5-3.7,3.5-5.7L770.2,426.8z M747.9,436.2l24,14.4l0.2,2.9
	c-0.3,2.2-0.2,4.5,0.2,6.7C761.8,450.9,749.4,439.5,747.9,436.2L747.9,436.2z M738.1,415.2c-2.6-1.1-4.8-2.1-6.3-2.9
	c2,0.1,3.9,0.3,5.6,0.3C737.7,413.5,738,414.4,738.1,415.2L738.1,415.2z M673.8,438.7c0,0,4.1-9.3,13.5,6.2c1.5,2.4,4.1,6.2,7.7,11
	l-27.2-3.6C671,447.2,673.2,442.6,673.8,438.7L673.8,438.7z"/>
<path class="st13" d="M733.5,401.5c0,0-19-8-34-14s-6,14-6,14s25,7,25,8s21,2,21,2L733.5,401.5z"/>
<path class="st14" d="M733.5,401.5c0,0-19-8-34-14s-6,14-6,14s25,7,25,8s21,2,21,2L733.5,401.5z"/>
<path class="st15" d="M814.5,322.5c0,0-34-18-40,17s-25,59-25,59s-18,4-25-3c0,0,17,20,9,22c0,0,18,13,26,9s14-31,17-38
	S790.5,320.5,814.5,322.5z"/>
<path class="st16" d="M814.5,322.5c0,0-34-18-40,17s-25,59-25,59s-18,4-25-3c0,0,17,20,9,22c0,0,18,13,26,9s14-31,17-38
	S790.5,320.5,814.5,322.5z"/>
<path class="st13" d="M795.5,310.5c0,0,21,24,22,44s24-21,26-22s-20-35-22-46S795.5,310.5,795.5,310.5z"/>
<polygon class="st13" points="810,320.8 796.8,332.8 803,358 820,342 818,326 "/>
<polygon class="st13" points="533.5,498.5 510.5,498.5 519.5,520.5 541.5,514.5 "/>
<path class="st9" d="M515.8,495.3c0,0-23.8,16.6-44.2,11.4s-25.9-3.2-28.3,3.4c-2.2,6.1,56.8,38.5,66.3,43.7
	c0.5,0.3,1.2,0.1,1.5-0.4c0-0.1,0.1-0.2,0.1-0.3c0.6-2.7,2.2-8.5,3.8-9c2.2-0.6,12-19,11.5-26.2S515.8,495.3,515.8,495.3z"/>
<path class="st17" d="M514.8,495.3c0,0-23.8,16.6-44.2,11.4s-25.9-3.2-28.3,3.4c-2.2,6.1,56.8,38.5,66.3,43.7
	c0.5,0.3,1.2,0.1,1.5-0.4c0-0.1,0.1-0.2,0.1-0.3c0.6-2.7,2.2-8.5,3.8-9c2.2-0.6,12-19,11.5-26.2S514.8,495.3,514.8,495.3z"/>
<path class="st18" d="M711.5,455.5l-67-9c0,0-109,52-122,53l3,23h20c8,0,86-17,97-34c6.4-1.7,13.1-1,19,2c10,5,106,36,106,36
	L711.5,455.5z"/>
<path class="st17" d="M711.5,455.5l-67-9c0,0-109,52-122,53l3,23h20c8,0,86-17,97-34c6.4-1.7,13.1-1,19,2c10,5,106,36,106,36
	L711.5,455.5z"/>
<polygon class="st13" points="592.5,486.5 581.5,500.5 592.5,506.5 608.5,494.5 "/>
<path class="st4" d="M783.5,470.5c0,0-36-30.8-38.5-36.4s-61.5-43.6-65.5-44.6s-17-8-30,16s-61,82-61,82s15,21,20,20s61-48,65-71
	c0,0,4-9,13,6s67,87,78,86c0,0,43,7,52-10S783.5,470.5,783.5,470.5z"/>
<path class="st19" d="M804,324c0,0-12.5,5.5-13.5,28.5s-23,62-23,62l2,46c0,0,24,24,26,39s19,25,19,25s20-10,23-23s5-45,10-57
	s2-87,2-87l-15-26l-8-9l-21,24C805.5,346.5,794,331,804,324z"/>
<path class="st9" d="M774.5,445.5c0,0-3-36,6-44l18-51c0,0,6.5-24.5,5.5-26.5s-23.5,19.5-23.5,19.5l-15,53l4,56L774.5,445.5z"/>
<path class="st15" d="M773.5,445.5c0,0-3-36,6-44l18-51c0,0,7-25,6-27s-24,20-24,20l-15,53l4,56L773.5,445.5z"/>
<path class="st13" d="M780.5,429.5c0,0-50-16-53-20s-35-30-46-12s41,23,41,23l53,32L780.5,429.5z"/>
<path class="st9" d="M594.7,500.4l-14.8-2.7c0,0-24.2,31-36.9,27.9s-24.3,10.4-10.9,14.8c12,3.9,64.1,9.5,74,10.5
	c0.8,0.1,1.5-0.5,1.6-1.3c0,0,0-0.1,0-0.1c0.1-3.9,0.9-7.7,2.3-11.3c2.7-6.5,0-20.6-0.7-26c-0.4-3.2-1.4-6.2-2.9-9L594.7,500.4z"/>
<path class="st17" d="M594.4,501.4l-14.8-2.7c0,0-24.2,31-36.8,27.9s-24.3,10.4-10.9,14.8c12,3.9,64.1,9.5,74,10.5
	c0.8,0.1,1.5-0.5,1.6-1.3c0,0,0-0.1,0-0.1c0-3.9,0.8-7.7,2.2-11.3c2.7-6.5,0-20.6-0.7-26c-0.4-3.2-1.4-6.2-2.9-9L594.4,501.4z"/>
<circle class="st9" cx="803" cy="290" r="32"/>
<circle class="st13" cx="800" cy="290" r="32"/>
<path class="st15" d="M831.5,321.5c0,0,38,13,38,40s-21,70-22,105s-56,30-56,30s-8-118,0-127S835.5,325.5,831.5,321.5z"/>
<path class="st9" d="M824.5,377.5c0,0-14,62-47,51c0,0-17,25-5,36c0,0,29,7,48-12s33-26,36-49s5-55-5-52S824.5,377.5,824.5,377.5z"
	/>
<path class="st15" d="M825.5,376.5c0,0-14,62-47,51c0,0-17,25-5,36c0,0,29,7,48-12s33-26,36-49s5-55-5-52S825.5,376.5,825.5,376.5z"
	/>
<path class="st19" d="M610.5,536c0,0.1-0.1,0.2-0.1,0.3c-0.7,1.7-1.2,3.5-1.6,5.3c0.2-0.8,0.5-1.6,0.8-2.4
	C610.1,538.2,610.4,537.1,610.5,536z"/>
<path class="st19" d="M532.6,538.5c-4.1-1.3-5.8-3.6-5.9-5.9c-1.7,3.3-0.6,6.9,5.2,8.8c12,3.9,64.1,9.5,74,10.5
	c0.8,0.1,1.5-0.5,1.6-1.3c0,0,0-0.1,0-0.1l0,0c0-0.8-0.6-1.4-1.3-1.5C595.3,547.8,544.5,542.4,532.6,538.5z"/>
<path class="st19" d="M443.8,508.4c0.3-0.7,0.6-1.4,1-2.1c-1.1,1.1-1.9,2.4-2.3,3.9c-2.2,6.1,56.8,38.5,66.3,43.7
	c0.5,0.3,1.2,0.1,1.5-0.4c0-0.1,0.1-0.2,0.1-0.3l0,0c0.1-0.5-0.1-1-0.5-1.2C499.3,546.3,441.6,514.5,443.8,508.4z"/>
<path class="st19" d="M515.4,542.4c-0.5,0.1-1,0.8-1.5,1.8l0.2-0.1c0.4-0.1,1.2-1,2.1-2.3C516,542.1,515.7,542.3,515.4,542.4z"/>
<path class="st9" d="M795.6,318.2c-2.8,6.2-3.4,13.2-5.5,19.8c-4.1,12.9-14.4,23.6-26.8,27.8c10.4,4.1,22.7-0.9,30.7-9.3
	s12.7-19.6,17.3-30.5c11.7,7.8,10.2,25.9,14.2,39.9c3.4,12.4,12,22.6,23.5,28.2c11.5,5.2,24.8,4.9,36.1-0.7
	c-10.7-13-25.9-30.9-24.1-48.3c1.5-14.1-8.6-24.8-7.9-38.9c1-20-6.7-30.2-21-43c-8.4-7.5,4.8-18.1-6-15c-4.3,1.2-8.7-3.3-12.9-1.8
	c-8.3,3-17.3,1.8-25.8,3.8C743.1,260.4,799.7,309.1,795.6,318.2z"/>
<path class="st17" d="M796.6,317.2c-2.8,6.2-3.4,13.2-5.5,19.8c-4.1,12.9-14.4,23.6-26.8,27.8c10.4,4.1,22.7-0.9,30.7-9.3
	s12.7-19.6,17.3-30.5c11.7,7.8,10.2,25.9,14.2,39.9c3.4,12.4,12,22.6,23.5,28.2c11.5,5.2,24.8,4.9,36.1-0.7
	c-10.7-13-24.9-27.9-23.1-45.3c1.5-14.1-0.7-28.5,0-42.6c1-20-8.8-39.3-23.2-52.2c-8.4-7.5-21.5-8.5-25.7-7
	c-8.3,3-17.3,1.8-25.8,3.8C744.1,259.4,800.7,308.1,796.6,317.2z"/>
<g>
	<g class="st9">
		<g>
			<path d="M202.5,373.8c-1.6-2.2-4.1-3.5-6.8-3.5c-4.6,0-8.3,3.7-8.3,8.3c0,0.1,0,0.2,0,0.3l-4.9,1.6c-2.4-2.8-6.4-3.6-9.7-2
				l-8.4-8.4c1.9-4.2,0.1-9.1-4.1-11.1c-4.2-1.9-9.1-0.1-11.1,4.1c-1.9,4.2-0.1,9.1,4.1,11.1c2.4,1.1,5.3,1,7.6-0.3l8.1,8.1
				c-1.1,1.9-1.4,4.1-0.8,6.2l-5.2,3.5c-3.6-2.9-8.9-2.4-11.8,1.2c-2.9,3.6-2.4,8.9,1.2,11.8s8.9,2.4,11.8-1.2
				c1.7-2.1,2.3-4.9,1.6-7.5l5.2-3.5c2.2,1.8,5.1,2.3,7.8,1.5l2.6,3.8c-3.3,3.3-3.3,8.7,0,12s8.7,3.3,12,0c3.3-3.3,3.3-8.7,0-12
				c-1.9-1.9-4.7-2.8-7.4-2.4l-3-4.6c1.2-1.7,1.8-3.9,1.4-6l4.4-1.5c2.6,3.8,7.8,4.7,11.6,2C204.2,382.8,205.1,377.6,202.5,373.8z
				 M156.7,373.1c-3.6,0-6.5-2.9-6.5-6.5c0-3.6,2.9-6.5,6.5-6.5s6.5,2.9,6.5,6.5S160.3,373.1,156.7,373.1z M162.3,372.7
				c0.4-0.3,0.7-0.7,1-1l9.9,9.9c0.3,0.3,0.3,0.7,0,1c0,0-0.1,0.1-0.1,0.1c-0.3,0.2-0.7,0.1-0.9-0.1L162.3,372.7z M157.7,404.6
				c-3.6,0-6.5-2.9-6.5-6.5s2.9-6.5,6.5-6.5c3.6,0,6.5,2.9,6.5,6.5C164.1,401.6,161.2,404.5,157.7,404.6z M165,394.2
				c-0.2-0.4-0.5-0.9-0.8-1.2l4.6-3.1c0.2,0.4,0.5,0.9,0.8,1.2L165,394.2z M177.2,391.6l0.5,0.7c-3.5,0.8-7-1.3-7.8-4.8
				c-0.3-1.4-0.2-2.9,0.4-4.2l0.6,0.6c1,1,2.6,1,3.6-0.1c1-1,1-2.6,0-3.6l-0.4-0.4c3.4-1.2,7,0.7,8.2,4c0.2,0.7,0.3,1.4,0.3,2.1
				c0,1.1-0.3,2.2-0.8,3.1l-0.3-0.4c-0.8-1.2-2.4-1.5-3.6-0.7C176.8,388.9,176.5,390.4,177.2,391.6z M187.3,397.1
				c3.6,0,6.5,2.9,6.5,6.5c0,3.6-2.9,6.5-6.5,6.5s-6.5-2.9-6.5-6.5S183.7,397.1,187.3,397.1z M184.1,395.9c-0.5,0.2-0.9,0.4-1.3,0.7
				l-4-6c-0.2-0.4-0.1-0.8,0.2-1.1c0.4-0.2,0.8-0.1,1.1,0.2L184.1,395.9z M184,383.1c-0.1-0.3-0.3-0.7-0.4-1l4.1-1.4
				c0.1,0.3,0.2,0.7,0.3,1L184,383.1z M195.6,385.1c-3.6,0-6.5-2.9-6.5-6.5s2.9-6.5,6.5-6.5s6.5,2.9,6.5,6.5
				C202.1,382.2,199.2,385.1,195.6,385.1z"/>
		</g>
	</g>
	<g>
		<g>
			<path class="st1" d="M202.3,372.5c-1.6-2.2-4.1-3.5-6.8-3.5c-4.6,0-8.3,3.7-8.3,8.3c0,0.1,0,0.2,0,0.3l-4.9,1.6
				c-2.4-2.8-6.4-3.6-9.7-2l-8.4-8.4c1.9-4.2,0.1-9.1-4.1-11.1c-4.2-1.9-9.1-0.1-11.1,4.1s-0.1,9.1,4.1,11.1c2.4,1.1,5.3,1,7.6-0.3
				l8.1,8.1c-1.1,1.9-1.4,4.1-0.8,6.2l-5.2,3.5c-3.6-2.9-8.9-2.4-11.8,1.2c-2.9,3.6-2.4,8.9,1.2,11.8c3.6,2.9,8.9,2.4,11.8-1.2
				c1.7-2.1,2.3-4.9,1.6-7.5l5.2-3.5c2.2,1.8,5.1,2.3,7.8,1.5l2.6,3.8c-3.3,3.3-3.3,8.7,0,12c3.3,3.3,8.7,3.3,12,0
				c3.3-3.3,3.3-8.7,0-12c-1.9-1.9-4.7-2.8-7.4-2.4l-3-4.6c1.2-1.7,1.8-3.9,1.4-6l4.4-1.5c2.6,3.8,7.8,4.7,11.6,2
				C204.1,381.4,205,376.2,202.3,372.5z M156.6,371.7c-3.6,0-6.5-2.9-6.5-6.5c0-3.6,2.9-6.5,6.5-6.5s6.5,2.9,6.5,6.5
				S160.2,371.7,156.6,371.7z M162.2,371.4c0.4-0.3,0.7-0.7,1-1l9.9,9.9c0.3,0.3,0.3,0.7,0,1c0,0-0.1,0.1-0.1,0.1
				c-0.3,0.2-0.7,0.1-0.9-0.1L162.2,371.4z M157.5,403.2c-3.6,0-6.5-2.9-6.5-6.5s2.9-6.5,6.5-6.5s6.5,2.9,6.5,6.5
				C164,400.3,161.1,403.2,157.5,403.2z M164.9,392.9c-0.2-0.4-0.5-0.9-0.8-1.2l4.6-3.1c0.2,0.4,0.5,0.9,0.8,1.2L164.9,392.9z
				 M177.1,390.3l0.5,0.7c-3.5,0.8-7-1.3-7.8-4.8c-0.3-1.4-0.2-2.9,0.4-4.2l0.6,0.6c1,1,2.6,1,3.6-0.1c1-1,1-2.6,0-3.6l-0.4-0.4
				c3.4-1.2,7,0.7,8.2,4c0.2,0.7,0.3,1.4,0.3,2.1c0,1.1-0.3,2.2-0.8,3.1l-0.3-0.4c-0.8-1.2-2.4-1.5-3.6-0.7
				C176.6,387.5,176.3,389.1,177.1,390.3z M187.2,395.8c3.6,0,6.5,2.9,6.5,6.5c0,3.6-2.9,6.5-6.5,6.5s-6.5-2.9-6.5-6.5
				S183.6,395.8,187.2,395.8z M184,394.6c-0.5,0.2-0.9,0.4-1.3,0.7l-4-6c-0.2-0.4-0.1-0.8,0.2-1.1c0.4-0.2,0.8-0.1,1.1,0.2
				L184,394.6z M183.8,381.7c-0.1-0.3-0.3-0.7-0.4-1l4.1-1.4c0.1,0.3,0.2,0.7,0.3,1L183.8,381.7z M195.5,383.8
				c-3.6,0-6.5-2.9-6.5-6.5s2.9-6.5,6.5-6.5s6.5,2.9,6.5,6.5C202,380.9,199.1,383.8,195.5,383.8z"/>
		</g>
	</g>
</g>
</svg>
